<mxfile host="app.diagrams.net" modified="2020-08-30T02:47:31.302Z" agent="5.0 (Macintosh; Intel Mac OS X 10_14_6) AppleWebKit/537.36 (KHTML, like Gecko) Chrome/84.0.4147.125 Safari/537.36" etag="lk0f-i_mdGQrI4vKVVkh" version="13.6.5" type="github">
  <diagram name="Page-1" id="03018318-947c-dd8e-b7a3-06fadd420f32">
    <mxGraphModel dx="1965" dy="1363" grid="1" gridSize="10" guides="1" tooltips="1" connect="1" arrows="1" fold="1" page="1" pageScale="1" pageWidth="1100" pageHeight="850" background="#ffffff" math="0" shadow="0">
      <root>
        <mxCell id="0" />
        <mxCell id="1" parent="0" />
        <mxCell id="n7F6rrYFRgKHrXra-Xrk-7" value="&lt;font style=&quot;font-size: 30px&quot;&gt;100vw&lt;/font&gt;" style="shape=dimension;whiteSpace=wrap;html=1;align=center;points=[];verticalAlign=bottom;spacingBottom=-5;labelBackgroundColor=#ffffff" vertex="1" parent="1">
          <mxGeometry y="810" width="960" height="40" as="geometry" />
        </mxCell>
        <mxCell id="n7F6rrYFRgKHrXra-Xrk-8" value="&lt;span style=&quot;font-size: 30px&quot;&gt;100vw&lt;/span&gt;" style="shape=dimension;direction=west;whiteSpace=wrap;html=1;align=center;points=[];verticalAlign=top;spacingTop=-8;labelBackgroundColor=#ffffff" vertex="1" parent="1">
          <mxGeometry y="30" width="960" height="40" as="geometry" />
        </mxCell>
        <mxCell id="n7F6rrYFRgKHrXra-Xrk-9" value="Label" style="shape=dimension;direction=north;whiteSpace=wrap;html=1;align=right;points=[];verticalAlign=middle;labelBackgroundColor=#ffffff" vertex="1" parent="1">
          <mxGeometry x="410" y="450" width="40" height="100" as="geometry" />
        </mxCell>
        <mxCell id="n7F6rrYFRgKHrXra-Xrk-11" value="&lt;span style=&quot;font-size: 30px&quot;&gt;30% (33vw)&lt;/span&gt;" style="shape=dimension;whiteSpace=wrap;html=1;align=center;points=[];verticalAlign=bottom;spacingBottom=-5;labelBackgroundColor=#ffffff" vertex="1" parent="1">
          <mxGeometry y="280" width="320" height="40" as="geometry" />
        </mxCell>
        <mxCell id="n7F6rrYFRgKHrXra-Xrk-12" value="Container" style="swimlane;" vertex="1" parent="1">
          <mxGeometry y="40" width="320" height="200" as="geometry" />
        </mxCell>
        <mxCell id="n7F6rrYFRgKHrXra-Xrk-14" value="Container" style="swimlane;" vertex="1" parent="1">
          <mxGeometry x="320" y="40" width="320" height="200" as="geometry" />
        </mxCell>
        <mxCell id="n7F6rrYFRgKHrXra-Xrk-16" value="&lt;span style=&quot;font-size: 30px&quot;&gt;30% (33vw)&lt;/span&gt;" style="shape=dimension;whiteSpace=wrap;html=1;align=center;points=[];verticalAlign=bottom;spacingBottom=-5;labelBackgroundColor=#ffffff" vertex="1" parent="1">
          <mxGeometry x="320" y="260" width="320" height="40" as="geometry" />
        </mxCell>
        <mxCell id="n7F6rrYFRgKHrXra-Xrk-17" value="Foo bar" style="rounded=0;whiteSpace=wrap;html=1;" vertex="1" parent="1">
          <mxGeometry x="640" y="40" width="320" height="40" as="geometry" />
        </mxCell>
      </root>
    </mxGraphModel>
  </diagram>
</mxfile>
